<?xml version="1.0" standalone="no"?><!DOCTYPE svg PUBLIC "-//W3C//DTD SVG 1.1//EN" "http://www.w3.org/Graphics/SVG/1.1/DTD/svg11.dtd"><svg t="1497683623876" class="icon" style="" viewBox="0 0 1024 1024" version="1.1" xmlns="http://www.w3.org/2000/svg" p-id="3107" xmlns:xlink="http://www.w3.org/1999/xlink" width="16" height="16"><defs><style type="text/css"></style></defs><path d="M983.731878 312.710095c-25.787316-60.966537-62.700017-115.718535-109.713774-162.731268-47.013757-47.012733-101.764732-83.925435-162.732292-109.713774C648.154983 13.563924 581.104891 0.025583 511.99693 0.025583s-136.158053 13.538341-199.288882 40.240493c-60.968583 25.787316-115.719558 62.700017-162.732292 109.713774-47.012733 47.012733-83.925435 101.764732-109.712751 162.731268C13.55983 375.840924 0.021489 442.892039 0.021489 511.998977s13.538341 136.158053 40.240493 199.288882c25.787316 60.969607 62.700017 115.718535 109.712751 162.732292 47.013757 47.012733 101.764732 83.927481 162.732292 109.712751 63.130829 26.701129 130.179898 40.240493 199.288882 40.240493s136.158053-13.539364 199.288882-40.240493c60.968583-25.787316 115.719558-62.700017 162.732292-109.712751 47.012733-47.013757 83.925435-101.764732 109.713774-162.732292 26.702152-63.130829 40.240493-130.180921 40.240493-199.288882S1010.43403 375.840924 983.731878 312.710095zM951.21223 697.5336c-24.007787 56.759725-58.380642 107.738793-102.160751 151.519925-43.781132 43.782156-94.760201 78.153988-151.519925 102.160751-58.754149 24.850991-121.17685 37.451984-185.534624 37.451984s-126.779452-12.602016-185.534624-37.451984c-56.759725-24.00574-107.738793-58.378595-151.519925-102.160751-43.782156-43.781132-78.153988-94.760201-102.160751-151.519925C47.930639 638.779452 35.329646 576.35675 35.329646 511.998977S47.930639 385.218502 72.78163 326.465376c24.007787-56.759725 58.379619-107.736746 102.160751-151.518902 43.781132-43.782156 94.760201-78.153988 151.519925-102.160751 58.754149-24.852014 121.17685-37.451984 185.534624-37.451984s126.780475 12.600993 185.534624 37.451984c56.759725 24.007787 107.736746 58.378595 151.519925 102.160751 43.782156 43.782156 78.153988 94.761224 102.160751 151.519925 24.850991 58.754149 37.451984 121.17685 37.451984 185.534624S976.062198 638.779452 951.21223 697.5336z" p-id="3108" fill="#8a8a8a"></path><path d="M574.226227 502.96216c-9.449209-27.085892-13.654998-112.855324-14.866592-117.977995l290.048979 0 0-77.004815L550.551014 307.97935l-0.049119-29.791513L550.501896 145.051607l-77.023234 0 0 133.056412-0.055259 29.873378L175.146019 307.981397l0 77.002768 289.456485 0c0 15.06716 1.555425 47.610344-14.781658 112.952538-16.378016 95.747691-116.77561 199.911052-277.586133 290.411229l37.758975 67.130933C315.987744 795.832394 449.843358 694.814676 513.909489 559.509037c16.587793 35.151591 45.704948 84.882226 72.877821 116.862591 54.601572 64.22065 122.722042 120.322389 227.187279 179.108261l37.782511-67.130933C687.535899 695.934173 611.930967 611.05911 574.226227 502.96216z" p-id="3109" fill="#8a8a8a"></path></svg>