<?xml version="1.0" encoding="utf-8"?>
<!-- Generator: Adobe Illustrator 16.0.0, SVG Export Plug-In . SVG Version: 6.00 Build 0)  -->
<!DOCTYPE svg PUBLIC "-//W3C//DTD SVG 1.1//EN" "http://www.w3.org/Graphics/SVG/1.1/DTD/svg11.dtd">
<svg version="1.1" id="图层_1" xmlns="http://www.w3.org/2000/svg" xmlns:xlink="http://www.w3.org/1999/xlink" x="0px" y="0px"
	 width="192.538px" height="54.102px" viewBox="0 0 192.538 54.102" enable-background="new 0 0 192.538 54.102"
	 xml:space="preserve">
<g>
	<g>
		<path fill="#FFFFFF" d="M57.583,6.577l0.643,0.459c-1.652,3.672-3.733,6.671-6.242,8.996l-0.551-0.551
			C54.063,12.973,56.115,10.005,57.583,6.577z M55.105,12.819l0.734,0.184V27.69h-0.734V12.819z M58.593,13.187h5.232
			c0-0.367,0-0.795,0-1.285V6.944l0.826,0.184v4.773c0,0.49,0,0.918,0,1.285h7.803v0.734H64.56
			c-0.491,5.937-2.786,10.526-6.885,13.77l-0.551-0.551c3.794-2.876,5.997-7.282,6.609-13.219h-5.141V13.187z M70.068,26.956h-1.836
			c-1.469,0-2.203-0.643-2.203-1.928v-8.996l0.826,0.184v8.813c0,0.795,0.459,1.193,1.377,1.193h1.836
			c1.224-0.062,2.02-1.102,2.387-3.121l0.734,0.184C72.698,25.731,71.659,26.956,70.068,26.956z M67.314,8.597l0.551-0.551
			c1.04,0.734,1.928,1.622,2.662,2.662l-0.551,0.551C69.242,10.219,68.354,9.331,67.314,8.597z"/>
		<path fill="#FFFFFF" d="M79.156,9.423h-3.121V8.688h7.344v0.734h-3.396c-0.796,4.468-2.235,8.262-4.314,11.383l-0.734-0.459
			C77.075,17.165,78.481,13.523,79.156,9.423z M78.238,16.032h5.049v9.455h-5.049V16.032z M78.972,16.858v8.078h3.488v-8.078H78.972
			z M93.476,21.54v0.643h-8.904V21.54H93.476z M93.292,16.767h1.744c0.856,0,1.224,0.367,1.102,1.102
			c-0.124,2.999-0.307,5.324-0.551,6.977c-0.062,1.836-1.438,2.723-4.131,2.662l-0.184-0.826c2.263,0.244,3.427-0.367,3.488-1.836
			c0.122-0.918,0.275-2.601,0.459-5.049c0.06-0.918,0.122-1.561,0.184-1.928c0-0.244-0.124-0.367-0.367-0.367h-8.354
			c-0.796,0-1.193-0.336-1.193-1.01c0.122-1.224,0.244-2.662,0.367-4.314c0.122-1.162,0.184-1.958,0.184-2.387l0.826,0.092
			c0,0.307-0.032,0.857-0.092,1.652c-0.184,1.836-0.307,3.458-0.367,4.865c-0.062,0.184,0.122,0.307,0.551,0.367h5.416
			c0.122-0.918,0.335-2.479,0.643-4.682c0.184-1.529,0.306-2.601,0.367-3.213c0-0.367-0.124-0.551-0.367-0.551h-8.262V7.587h8.629
			c0.673,0.062,0.978,0.367,0.918,0.918c-0.124,0.796-0.245,1.714-0.367,2.754C93.751,12.851,93.536,14.687,93.292,16.767z"/>
		<path fill="#FFFFFF" d="M99.259,11.075h20.379v0.734H99.259V11.075z M100.544,13.921h7.619v11.475
			c0.184,1.102-0.583,1.591-2.295,1.469l-0.275-0.734c1.345,0.122,1.928-0.123,1.744-0.734v-3.488h-5.967v4.773h-0.826V13.921z
			 M101.371,14.655v2.846h5.967v-2.846H101.371z M101.371,18.235v2.938h5.967v-2.938H101.371z M107.246,9.698l-0.643,0.551
			c-0.796-1.102-1.652-2.05-2.57-2.846l0.551-0.551c0.611,0.49,1.437,1.347,2.479,2.57C107.122,9.546,107.184,9.638,107.246,9.698z
			 M111.927,10.249l-0.551-0.551c0.794-0.673,1.712-1.621,2.754-2.846l0.551,0.551C113.885,8.444,112.967,9.393,111.927,10.249z
			 M113.121,24.11h-0.826v-9.547l0.826,0.184V24.11z M114.681,27.14l-0.184-0.826c2.02,0.122,2.906-0.184,2.662-0.918V13.187
			l0.734,0.184v12.025C118.2,26.619,117.128,27.2,114.681,27.14z"/>
		<path fill="#FFFFFF" d="M129.919,21.54l0.367,0.643c-1.102,0.429-2.662,1.041-4.682,1.836c-1.163,0.49-2.051,0.857-2.662,1.102
			l-0.367-0.734c0.611-0.244,1.529-0.611,2.754-1.102C127.349,22.489,128.878,21.907,129.919,21.54z M122.759,12.544V11.81h8.262
			v0.734H122.759z M124.228,15.114l0.826-0.184c0.122,0.612,0.275,1.959,0.459,4.039c0-0.184,0.03,0,0.092,0.551l-0.734,0.184
			c0-0.122-0.032-0.336-0.092-0.643C124.595,17.165,124.412,15.849,124.228,15.114z M127.533,10.983l-0.734,0.367
			c-0.307-1.285-0.734-2.447-1.285-3.488l0.734-0.367c0.244,0.674,0.581,1.561,1.01,2.662
			C127.379,10.524,127.471,10.8,127.533,10.983z M127.9,21.265l-0.734-0.184c0.611-1.836,1.253-4.161,1.928-6.977l0.734,0.184
			C129.46,16.247,128.818,18.572,127.9,21.265z M136.07,19.153l-0.551-0.459c0.427-0.611,0.918-1.285,1.469-2.02l0.643,0.367
			c-0.124,0.184-0.367,0.521-0.734,1.01c-0.307,0.49-0.551,0.857-0.734,1.102h6.977v6.334c0.184,1.407-0.583,2.172-2.295,2.295
			l-0.184-0.643c1.345-0.123,1.928-0.674,1.744-1.652v-5.6h-3.305v6.793h-0.734v-6.793h-2.938v6.793h-0.734v-6.793h-2.938v7.344
			h-0.734v-8.078H136.07z M131.205,15.298h11.75v0.734h-11.75V15.298z M136.988,12.544V7.22l0.734,0.184v5.141h4.131V8.688
			l0.734,0.275v4.406h-10.465V8.505l0.826,0.184v3.855H136.988z"/>
		<path fill="#FFFFFF" d="M146.626,13.37v-0.734h3.121v-5.6l0.734,0.184v5.416h2.662v0.734h-2.662v4.957
			c0.367-0.184,0.826-0.397,1.377-0.643c0.611-0.306,1.07-0.52,1.377-0.643l0.184,0.734c-0.184,0.062-0.459,0.184-0.826,0.367
			c-0.918,0.429-1.622,0.766-2.111,1.01v6.701c0.122,1.285-0.796,1.896-2.754,1.836l-0.092-0.826
			c1.591,0.122,2.295-0.215,2.111-1.01v-6.426c-0.307,0.123-0.766,0.337-1.377,0.643c-0.612,0.245-1.071,0.459-1.377,0.643
			l-0.184-0.826c0.918-0.367,1.896-0.795,2.938-1.285V13.37H146.626z M155.531,26.681h4.773V14.288h-5.967v-0.734h5.967V9.882
			l0.826,0.184v3.488h6.518v0.734h-6.518v12.393h4.773v-3.855h-3.488v-0.734h3.488v-3.764h-3.672v-0.734h4.498v9.822h-12.025v-9.271
			c0.489-0.122,1.193-0.306,2.111-0.551c0.978-0.244,1.683-0.428,2.111-0.551l0.184,0.734c-1.163,0.307-2.356,0.643-3.58,1.01v3.305
			h3.58v0.734h-3.58V26.681z M156.082,9.331V8.505c3.548,0.184,6.64-0.061,9.271-0.734l0.184,0.734
			C162.416,9.239,159.263,9.515,156.082,9.331z"/>
		<path fill="#FFFFFF" d="M169.208,16.858c2.57-2.814,4.65-5.905,6.242-9.271l0.643,0.367c-1.409,3.183-3.52,6.334-6.334,9.455
			L169.208,16.858z M172.789,13.737l0.826,0.184v13.494h-0.826V13.737z M179.214,9.515l0.734,0.184
			c-0.429,1.102-0.888,2.203-1.377,3.305h4.498V7.22l0.734,0.184v5.6h5.416v0.734h-5.416v5.783h6.518v0.734h-6.518v7.527h-0.734
			v-7.527h-7.16v-0.734h7.16v-5.783h-4.865c-0.491,0.979-1.01,1.897-1.561,2.754l-0.734-0.275
			C177.255,14.196,178.356,11.963,179.214,9.515z"/>
	</g>
	<path fill="#FFFEFE" d="M13.973,30.836c-2.166-2.168-3.506-5.16-3.506-8.465c0-6.051,4.49-11.039,10.318-11.846V0
		C9.166,0.848,0,10.535,0,22.371c0,6.195,2.512,11.805,6.572,15.865l6.129,6.129l7.4-7.4L13.973,30.836z"/>
	<path fill="#00A29A" d="M24.09,0v10.525c5.828,0.807,10.319,5.795,10.319,11.846c0,3.305-1.34,6.297-3.507,8.465l-5.145,5.145
		l-3.32,3.32l-7.4,7.4l7.4,7.4l15.866-15.865c4.061-4.061,6.571-9.67,6.571-15.865C44.875,10.535,35.709,0.846,24.09,0z"/>
	<circle fill="#EEEEEE" cx="22.61" cy="22.369" r="6.81"/>
	<g>
		<path fill="#FFFFFF" d="M54.257,45.508c0.069-0.646,0.14-1.488,0.212-2.527c0.071-1.039,0.113-1.867,0.125-2.484l-3.9-6.883
			c0.656,0.012,1.166,0.018,1.532,0.018c0.348,0,0.812-0.006,1.393-0.018c0.261,0.604,0.642,1.367,1.142,2.293
			s0.93,1.775,1.29,2.549l2.592-4.18c0.088-0.146,0.216-0.367,0.385-0.662c0.563,0.012,1.062,0.018,1.497,0.018
			c0.227,0,0.693-0.006,1.401-0.018l-4.757,7.066l-0.106,2.205c-0.035,0.65-0.062,1.525-0.079,2.623
			c-0.621-0.012-1.074-0.018-1.358-0.018C55.334,45.49,54.878,45.496,54.257,45.508z"/>
		<path fill="#FFFFFF" d="M66.918,36.436c0.668,0,1.309,0.102,1.921,0.301c0.613,0.201,1.133,0.498,1.56,0.889
			c0.428,0.393,0.748,0.873,0.963,1.439s0.322,1.162,0.322,1.789c0,0.662-0.113,1.303-0.34,1.918
			c-0.226,0.615-0.555,1.148-0.984,1.598c-0.43,0.451-0.966,0.787-1.607,1.012c-0.642,0.223-1.326,0.336-2.052,0.336
			c-0.674,0-1.314-0.102-1.922-0.301c-0.606-0.201-1.125-0.502-1.555-0.902c-0.431-0.4-0.757-0.889-0.98-1.463
			c-0.224-0.576-0.336-1.178-0.336-1.805c0-0.639,0.102-1.248,0.306-1.83c0.203-0.58,0.521-1.098,0.954-1.551
			s0.985-0.805,1.659-1.055S66.197,36.436,66.918,36.436z M66.917,38.23c-0.503,0-0.953,0.125-1.35,0.371
			c-0.396,0.248-0.691,0.615-0.886,1.102c-0.193,0.488-0.291,1.02-0.291,1.596c0,0.506,0.08,0.955,0.239,1.35
			c0.159,0.396,0.419,0.715,0.781,0.959c0.361,0.244,0.791,0.365,1.289,0.365c0.51,0,0.956-0.125,1.342-0.379
			c0.385-0.252,0.674-0.623,0.868-1.115c0.193-0.49,0.291-1.031,0.291-1.625c0-0.482-0.076-0.92-0.227-1.314
			c-0.15-0.396-0.403-0.713-0.76-0.951C67.859,38.35,67.427,38.23,66.917,38.23z"/>
		<path fill="#FFFFFF" d="M82.168,45.508c-0.512-0.012-0.904-0.018-1.178-0.018c-0.343,0-0.731,0.006-1.168,0.018l0.016-1.447
			c-0.162,0.244-0.305,0.439-0.427,0.588s-0.281,0.293-0.479,0.436c-0.197,0.143-0.412,0.256-0.645,0.34
			c-0.231,0.084-0.498,0.154-0.797,0.209c-0.299,0.057-0.617,0.084-0.954,0.084c-0.65,0-1.216-0.096-1.698-0.283
			c-0.482-0.189-0.864-0.475-1.146-0.859c-0.281-0.383-0.423-0.932-0.423-1.646v-0.184l0.142-2.248l0.132-2.961
			c0.006-0.238,0.009-0.535,0.009-0.891c0.552,0.012,0.983,0.018,1.297,0.018c0.331,0,0.73-0.006,1.201-0.018l-0.29,3.975
			c-0.018,0.309-0.031,0.568-0.039,0.779c-0.009,0.213-0.014,0.365-0.014,0.457c0,0.42,0.063,0.766,0.188,1.041
			c0.124,0.277,0.342,0.488,0.652,0.633s0.643,0.217,0.997,0.217c0.337,0,0.655-0.063,0.957-0.191
			c0.273-0.115,0.507-0.277,0.701-0.488c0.194-0.209,0.358-0.49,0.492-0.844c0.099-0.256,0.174-0.611,0.226-1.064
			c0.041-0.318,0.079-0.867,0.113-1.646c0.049-0.941,0.082-1.896,0.1-2.867c0.576,0.012,1.015,0.018,1.317,0.018
			c0.344,0,0.729-0.006,1.16-0.018c-0.069,0.832-0.142,1.869-0.217,3.115s-0.128,2.275-0.156,3.086
			C82.208,43.656,82.186,44.543,82.168,45.508z"/>
		<path fill="#FFFFFF" d="M84.267,45.508l0.227-1.971l0.577-6.918l0.201-3.006c0.83,0.012,1.436,0.018,1.818,0.018
			c0.308,0,0.868-0.006,1.68-0.018c0.094,0.471,0.163,0.805,0.21,1.002s0.137,0.514,0.271,0.949s0.306,0.965,0.516,1.586
			c0.309,0.941,0.585,1.871,0.829,2.789l0.664,2.492l1.165-3.197l1.696-4.158c0.058-0.139,0.117-0.301,0.179-0.482
			c0.061-0.184,0.163-0.51,0.309-0.98c0.691,0.012,1.308,0.018,1.848,0.018c0.36,0,0.937-0.006,1.727-0.018
			c-0.081,1.672-0.143,3.521-0.183,5.547c-0.04,2.023-0.061,3.535-0.061,4.535c0,0.482,0.006,1.086,0.018,1.813
			c-0.575-0.012-0.968-0.018-1.177-0.018c-0.303,0-0.703,0.006-1.203,0.018c0.035-0.594,0.058-1.082,0.069-1.465l0.146-5.184
			c0.018-0.732,0.026-1.453,0.026-2.162l-0.009-0.705l-3.203,8.479l-0.373,1.037c-0.565-0.012-0.954-0.018-1.164-0.018
			c-0.262,0-0.674,0.006-1.233,0.018l-1.5-5.369c-0.052-0.191-0.174-0.592-0.366-1.201l-0.54-1.777
			c-0.053-0.168-0.092-0.307-0.118-0.414c-0.025-0.107-0.083-0.348-0.17-0.719l-0.113,1.115c-0.029,0.354-0.072,0.947-0.131,1.777
			l-0.34,5.402c-0.012,0.268-0.021,0.662-0.026,1.186l-1.124-0.018C85.216,45.49,84.836,45.496,84.267,45.508z"/>
		<path fill="#FFFFFF" d="M100.813,38.588c0.082-0.418,0.133-0.711,0.152-0.879c0.021-0.168,0.057-0.424,0.109-0.768
			c0.79-0.186,1.487-0.316,2.091-0.393c0.604-0.074,1.188-0.113,1.752-0.113c0.639,0,1.226,0.074,1.76,0.223
			s0.953,0.385,1.255,0.711c0.302,0.324,0.453,0.793,0.453,1.402c0,0.332-0.046,1.176-0.139,2.531
			c-0.092,1.357-0.147,2.758-0.164,4.205c-0.442-0.012-0.85-0.018-1.221-0.018c-0.355,0-0.771,0.006-1.247,0.018
			c0.076-0.703,0.138-1.518,0.185-2.441l0.114-2.168c-0.221,0.145-0.389,0.246-0.505,0.305c-0.117,0.059-0.248,0.111-0.393,0.16
			c-0.146,0.051-0.401,0.125-0.768,0.227s-0.66,0.191-0.881,0.266c-0.221,0.076-0.42,0.162-0.598,0.258s-0.327,0.203-0.449,0.322
			s-0.211,0.244-0.266,0.375c-0.056,0.131-0.083,0.271-0.083,0.422c0,0.244,0.071,0.455,0.214,0.633
			c0.142,0.176,0.32,0.301,0.535,0.369c0.215,0.07,0.468,0.105,0.759,0.105c0.186,0,0.382-0.016,0.588-0.043
			c0.206-0.029,0.483-0.102,0.832-0.219c-0.122,0.332-0.265,0.824-0.427,1.48c-0.413,0.07-0.741,0.113-0.985,0.131
			c-0.243,0.018-0.47,0.027-0.679,0.027c-0.732,0-1.334-0.1-1.804-0.297c-0.471-0.197-0.818-0.512-1.042-0.941
			s-0.335-0.861-0.335-1.299c0-0.248,0.043-0.496,0.131-0.74c0.087-0.244,0.215-0.467,0.384-0.67c0.168-0.203,0.386-0.4,0.653-0.588
			c0.268-0.189,0.654-0.373,1.16-0.549c0.505-0.178,1.174-0.357,2.005-0.537c0.221-0.047,0.45-0.104,0.688-0.17
			s0.429-0.131,0.571-0.195s0.266-0.146,0.37-0.248c0.105-0.102,0.182-0.209,0.231-0.318c0.05-0.111,0.074-0.225,0.074-0.34
			c0-0.227-0.074-0.418-0.223-0.576c-0.147-0.156-0.34-0.266-0.575-0.326s-0.496-0.092-0.78-0.092
			C103.26,37.83,102.092,38.084,100.813,38.588z"/>
		<path fill="#FFFFFF" d="M120.147,43.328c-0.128,0.68-0.238,1.371-0.331,2.074c-0.662,0.117-1.27,0.197-1.821,0.244
			s-1.024,0.07-1.42,0.07c-0.871,0-1.703-0.123-2.496-0.367s-1.508-0.629-2.144-1.154c-0.637-0.525-1.097-1.162-1.381-1.912
			c-0.285-0.75-0.428-1.568-0.428-2.457c0-0.965,0.172-1.855,0.515-2.676c0.343-0.818,0.835-1.51,1.477-2.074
			c0.642-0.563,1.401-0.982,2.278-1.258c0.878-0.277,1.792-0.414,2.745-0.414c0.941,0,1.97,0.107,3.085,0.322
			c0.017,0.518,0.034,0.883,0.052,1.098l0.062,0.932c-0.657-0.174-1.203-0.293-1.639-0.357c-0.436-0.063-0.851-0.096-1.246-0.096
			c-0.621,0-1.219,0.096-1.79,0.283c-0.572,0.189-1.078,0.49-1.517,0.902s-0.775,0.91-1.011,1.494s-0.353,1.193-0.353,1.826
			c0,0.756,0.145,1.432,0.436,2.029c0.29,0.6,0.757,1.084,1.398,1.455c0.642,0.373,1.437,0.559,2.383,0.559
			C117.879,43.852,118.928,43.678,120.147,43.328z"/>
		<path fill="#FFFFFF" d="M126.604,36.436c0.668,0,1.309,0.102,1.921,0.301c0.613,0.201,1.133,0.498,1.56,0.889
			c0.428,0.393,0.748,0.873,0.963,1.439s0.322,1.162,0.322,1.789c0,0.662-0.113,1.303-0.34,1.918
			c-0.226,0.615-0.555,1.148-0.984,1.598c-0.43,0.451-0.966,0.787-1.607,1.012c-0.642,0.223-1.326,0.336-2.052,0.336
			c-0.674,0-1.314-0.102-1.922-0.301c-0.606-0.201-1.125-0.502-1.555-0.902c-0.431-0.4-0.757-0.889-0.98-1.463
			c-0.224-0.576-0.336-1.178-0.336-1.805c0-0.639,0.102-1.248,0.306-1.83c0.203-0.58,0.521-1.098,0.954-1.551
			s0.985-0.805,1.659-1.055S125.884,36.436,126.604,36.436z M126.604,38.23c-0.503,0-0.953,0.125-1.35,0.371
			c-0.396,0.248-0.691,0.615-0.886,1.102c-0.193,0.488-0.291,1.02-0.291,1.596c0,0.506,0.08,0.955,0.239,1.35
			c0.159,0.396,0.419,0.715,0.781,0.959c0.361,0.244,0.791,0.365,1.289,0.365c0.51,0,0.956-0.125,1.342-0.379
			c0.385-0.252,0.674-0.623,0.868-1.115c0.193-0.49,0.291-1.031,0.291-1.625c0-0.482-0.076-0.92-0.227-1.314
			c-0.15-0.396-0.403-0.713-0.76-0.951C127.546,38.35,127.113,38.23,126.604,38.23z"/>
		<path fill="#FFFFFF" d="M141.871,45.508c-0.482-0.012-0.857-0.018-1.124-0.018c-0.291,0-0.692,0.006-1.203,0.018l0.077-1.518
			c-0.256,0.332-0.475,0.588-0.658,0.768c-0.183,0.18-0.409,0.348-0.68,0.5c-0.27,0.154-0.562,0.27-0.875,0.346
			c-0.313,0.074-0.639,0.113-0.976,0.113c-0.558,0-1.08-0.102-1.568-0.305c-0.488-0.205-0.903-0.49-1.246-0.859
			s-0.595-0.807-0.758-1.316c-0.162-0.508-0.244-1.037-0.244-1.59c0-0.76,0.146-1.502,0.436-2.227
			c0.29-0.723,0.688-1.307,1.193-1.756c0.504-0.445,1.076-0.764,1.715-0.949c0.638-0.186,1.323-0.279,2.055-0.279
			c0.527,0,1.126,0.051,1.793,0.148c0.043-0.756,0.064-1.549,0.064-2.379v-0.592c0.547,0.012,0.966,0.018,1.256,0.018
			c0.378,0,0.803-0.006,1.273-0.018c-0.127,1.475-0.248,3.484-0.36,6.025C141.928,42.18,141.871,44.137,141.871,45.508z
			 M139.719,38.24c-0.437-0.117-0.854-0.174-1.255-0.174c-0.459,0-0.897,0.063-1.316,0.191c-0.418,0.127-0.788,0.346-1.11,0.652
			c-0.323,0.309-0.571,0.703-0.745,1.186c-0.175,0.482-0.262,0.947-0.262,1.395s0.08,0.857,0.239,1.229
			c0.16,0.371,0.408,0.666,0.745,0.881s0.717,0.322,1.142,0.322c0.319,0,0.609-0.057,0.871-0.17
			c0.261-0.113,0.499-0.289,0.714-0.523s0.396-0.539,0.545-0.91s0.254-0.865,0.318-1.482
			C139.646,40.383,139.684,39.518,139.719,38.24z"/>
		<path fill="#FFFFFF" d="M151.935,43.529c-0.075,0.342-0.183,0.959-0.322,1.848c-0.628,0.133-1.156,0.223-1.586,0.27
			s-0.862,0.07-1.299,0.07c-0.761,0-1.441-0.076-2.043-0.227s-1.128-0.428-1.581-0.832c-0.453-0.402-0.787-0.898-1.002-1.484
			c-0.216-0.586-0.323-1.201-0.323-1.846c0-0.713,0.125-1.404,0.375-2.076c0.25-0.67,0.6-1.219,1.05-1.645s0.963-0.729,1.538-0.906
			c0.575-0.176,1.177-0.266,1.804-0.266c0.593,0,1.156,0.074,1.69,0.223c0.534,0.146,0.983,0.391,1.347,0.727
			c0.362,0.336,0.642,0.74,0.836,1.213s0.292,0.998,0.292,1.578c0,0.273-0.029,0.555-0.087,0.844l-6.387,0.01
			c-0.012,0.215-0.018,0.385-0.018,0.514c0,0.389,0.066,0.746,0.2,1.07c0.134,0.326,0.328,0.602,0.584,0.828
			c0.255,0.227,0.561,0.395,0.915,0.502c0.354,0.107,0.702,0.16,1.045,0.16c0.401,0,0.835-0.043,1.303-0.131
			C150.733,43.887,151.29,43.738,151.935,43.529z M146.306,40.01l4.078,0.008c0-0.277-0.009-0.482-0.026-0.615
			c-0.018-0.135-0.057-0.285-0.118-0.457c-0.061-0.17-0.144-0.32-0.248-0.451c-0.104-0.129-0.227-0.238-0.366-0.324
			c-0.139-0.088-0.3-0.154-0.483-0.199c-0.183-0.047-0.379-0.07-0.588-0.07c-0.244,0-0.48,0.037-0.71,0.113
			c-0.229,0.074-0.44,0.186-0.632,0.33s-0.348,0.307-0.466,0.484c-0.119,0.18-0.208,0.352-0.267,0.518
			C146.422,39.51,146.363,39.73,146.306,40.01z"/>
		<path fill="#FFFFFF" d="M154.078,45.508c0.022-0.42,0.055-1.199,0.096-2.344l1.324,0.016c0.116,0,0.497-0.004,1.142-0.016
			c-0.029,0.424-0.053,0.85-0.069,1.279l-0.053,1.064l-1.142-0.018C155.33,45.49,154.897,45.496,154.078,45.508z"/>
		<path fill="#FFFFFF" d="M165.588,43.494c-0.028,0.238-0.072,0.508-0.13,0.811c-0.059,0.303-0.119,0.676-0.184,1.123
			c-0.83,0.193-1.649,0.289-2.457,0.289c-0.471,0-0.924-0.045-1.359-0.131c-0.436-0.088-0.841-0.242-1.215-0.467
			c-0.375-0.223-0.705-0.518-0.989-0.885c-0.285-0.365-0.498-0.809-0.641-1.328s-0.214-1.057-0.214-1.607
			c0-0.732,0.118-1.436,0.354-2.109s0.579-1.225,1.032-1.65c0.453-0.428,0.957-0.719,1.512-0.873c0.555-0.152,1.172-0.23,1.852-0.23
			c0.378,0,0.767,0.021,1.168,0.066c0.4,0.043,0.874,0.131,1.42,0.266l0.131,1.908c-0.864-0.297-1.618-0.445-2.262-0.445
			c-0.395,0-0.767,0.068-1.117,0.201c-0.352,0.135-0.652,0.344-0.905,0.633c-0.252,0.287-0.432,0.619-0.539,0.996
			c-0.107,0.379-0.161,0.764-0.161,1.16c0,0.551,0.086,1.029,0.257,1.434c0.171,0.402,0.466,0.715,0.883,0.936
			s0.893,0.332,1.427,0.332c0.261,0,0.578-0.033,0.952-0.102C164.775,43.754,165.171,43.645,165.588,43.494z"/>
		<path fill="#FFFFFF" d="M172.132,36.436c0.668,0,1.309,0.102,1.921,0.301c0.613,0.201,1.133,0.498,1.56,0.889
			c0.428,0.393,0.748,0.873,0.963,1.439s0.322,1.162,0.322,1.789c0,0.662-0.113,1.303-0.34,1.918
			c-0.226,0.615-0.555,1.148-0.984,1.598c-0.43,0.451-0.966,0.787-1.607,1.012c-0.642,0.223-1.326,0.336-2.052,0.336
			c-0.674,0-1.314-0.102-1.922-0.301c-0.606-0.201-1.125-0.502-1.555-0.902c-0.431-0.4-0.757-0.889-0.98-1.463
			c-0.224-0.576-0.336-1.178-0.336-1.805c0-0.639,0.102-1.248,0.306-1.83c0.203-0.58,0.521-1.098,0.954-1.551
			s0.985-0.805,1.659-1.055S171.411,36.436,172.132,36.436z M172.131,38.23c-0.503,0-0.953,0.125-1.35,0.371
			c-0.396,0.248-0.691,0.615-0.886,1.102c-0.193,0.488-0.291,1.02-0.291,1.596c0,0.506,0.08,0.955,0.239,1.35
			c0.159,0.396,0.419,0.715,0.781,0.959c0.361,0.244,0.791,0.365,1.289,0.365c0.51,0,0.956-0.125,1.342-0.379
			c0.385-0.252,0.674-0.623,0.868-1.115c0.193-0.49,0.291-1.031,0.291-1.625c0-0.482-0.076-0.92-0.227-1.314
			c-0.15-0.396-0.403-0.713-0.76-0.951C173.073,38.35,172.641,38.23,172.131,38.23z"/>
		<path fill="#FFFFFF" d="M178.405,45.508c0.081-0.988,0.167-2.463,0.257-4.428c0.09-1.963,0.136-3.441,0.136-4.436
			c0.493,0.012,0.894,0.018,1.201,0.018c0.354,0,0.738-0.006,1.151-0.018l-0.067,1.404c0.186-0.273,0.355-0.496,0.51-0.666
			c0.153-0.172,0.353-0.33,0.597-0.477c0.244-0.145,0.529-0.26,0.857-0.344s0.667-0.127,1.016-0.127
			c0.261,0,0.514,0.025,0.758,0.074c0.243,0.049,0.466,0.119,0.666,0.209s0.371,0.193,0.514,0.311
			c0.143,0.115,0.263,0.246,0.361,0.387c0.099,0.143,0.206,0.354,0.322,0.633c0.128-0.203,0.246-0.373,0.354-0.51
			s0.251-0.277,0.431-0.424c0.181-0.145,0.381-0.268,0.602-0.365c0.221-0.1,0.469-0.176,0.745-0.23
			c0.275-0.057,0.562-0.084,0.857-0.084c0.506,0,0.981,0.084,1.429,0.248c0.447,0.166,0.799,0.428,1.055,0.785
			c0.255,0.357,0.383,0.801,0.383,1.328c0,0.279-0.02,0.689-0.06,1.229c-0.041,0.541-0.09,1.422-0.146,2.645
			c-0.058,1.225-0.089,2.17-0.095,2.838c-0.425-0.012-0.8-0.018-1.126-0.018c-0.384,0-0.835,0.006-1.353,0.018
			c0.053-0.75,0.103-1.535,0.148-2.354l0.105-1.996c0.029-0.504,0.044-0.932,0.044-1.279c0-0.416-0.065-0.729-0.196-0.943
			c-0.131-0.213-0.297-0.365-0.497-0.455s-0.426-0.137-0.676-0.137c-0.261,0-0.498,0.051-0.71,0.15
			c-0.212,0.098-0.41,0.26-0.593,0.48c-0.184,0.223-0.324,0.48-0.423,0.775s-0.171,0.707-0.217,1.238
			c-0.046,0.533-0.083,1.23-0.112,2.096l-0.06,2.424c-0.483-0.012-0.885-0.018-1.204-0.018c-0.32,0-0.748,0.006-1.282,0.018
			c0.04-0.447,0.098-1.363,0.173-2.746c0.075-1.381,0.113-2.314,0.113-2.797c0-0.256-0.021-0.471-0.062-0.648
			c-0.04-0.178-0.123-0.346-0.248-0.506s-0.271-0.277-0.439-0.354c-0.168-0.074-0.363-0.113-0.583-0.113
			c-0.407,0-0.764,0.135-1.071,0.402s-0.533,0.623-0.675,1.07c-0.143,0.447-0.245,1.318-0.309,2.611
			c-0.063,1.291-0.095,2.318-0.095,3.08c-0.533-0.012-0.937-0.018-1.209-0.018C179.376,45.49,178.95,45.496,178.405,45.508z"/>
	</g>
</g>
</svg>
