<?xml version="1.0" standalone="no"?><!DOCTYPE svg PUBLIC "-//W3C//DTD SVG 1.1//EN" "http://www.w3.org/Graphics/SVG/1.1/DTD/svg11.dtd"><svg t="1497083983770" class="icon" style="" viewBox="0 0 1024 1024" version="1.1" xmlns="http://www.w3.org/2000/svg" p-id="6035" xmlns:xlink="http://www.w3.org/1999/xlink" width="16" height="16"><defs><style type="text/css"></style></defs><path d="M919.04 0H104.96A104.96 104.96 0 0 0 0 104.96v814.08a104.96 104.96 0 0 0 104.96 104.704h814.08A104.96 104.96 0 0 0 1024 919.04V104.6784A104.96 104.96 0 0 0 919.04 0z m-92.7232 290.9184l-2.1504 1.152-0.3072 2.56a315.0592 315.0592 0 0 1-623.744 0l-0.3584-2.56-2.176-1.152a48.64 48.64 0 0 1-24.704-41.728 48.9984 48.9984 0 0 1 97.9968 0 48.0512 48.0512 0 0 1-18.2016 37.248l-2.304 1.8176 0.512 2.8672a264.3456 264.3456 0 0 0 522.24 0l0.512-2.816-2.2272-1.792a47.9232 47.9232 0 0 1-18.2016-37.2736 48.9984 48.9984 0 0 1 48.9472-48.9472 48.3584 48.3584 0 0 1 24.192 90.624z" fill="#F45E62" p-id="6036"></path></svg>